<mxfile host="Electron" modified="2023-12-19T05:29:44.608Z" agent="Mozilla/5.0 (Macintosh; Intel Mac OS X 10_15_7) AppleWebKit/537.36 (KHTML, like Gecko) draw.io/22.1.11 Chrome/114.0.5735.289 Electron/25.9.8 Safari/537.36" etag="vC3NnfFs9athEGWcza8R" version="22.1.11" type="device" pages="2">
  <diagram name="第 1 页" id="g7MC9NgYhMIOstKCUi9z">
    <mxGraphModel dx="993" dy="734" grid="1" gridSize="10" guides="1" tooltips="1" connect="1" arrows="1" fold="1" page="1" pageScale="1" pageWidth="827" pageHeight="1169" math="0" shadow="0">
      <root>
        <mxCell id="0" />
        <mxCell id="1" parent="0" />
        <mxCell id="Q2U3eIDguRqmrn5DEOg9-1" value="" style="rounded=1;whiteSpace=wrap;html=1;" parent="1" vertex="1">
          <mxGeometry x="120" y="210" width="260" height="80" as="geometry" />
        </mxCell>
        <mxCell id="Q2U3eIDguRqmrn5DEOg9-2" value="&lt;font color=&quot;#99ccff&quot;&gt;Finger Dancing&lt;/font&gt;" style="text;html=1;strokeColor=none;fillColor=none;align=center;verticalAlign=middle;whiteSpace=wrap;rounded=0;" parent="1" vertex="1">
          <mxGeometry x="195" y="220" width="110" height="30" as="geometry" />
        </mxCell>
        <mxCell id="Q2U3eIDguRqmrn5DEOg9-3" value="CopyRight: Zhuang Yifei" style="text;html=1;strokeColor=none;fillColor=none;align=center;verticalAlign=middle;whiteSpace=wrap;rounded=0;" parent="1" vertex="1">
          <mxGeometry x="170" y="250" width="160" height="30" as="geometry" />
        </mxCell>
        <mxCell id="MwbJg4xykfJvcVXfdxU0-3" value="" style="group" parent="1" vertex="1" connectable="0">
          <mxGeometry x="243" y="620" width="417" height="190" as="geometry" />
        </mxCell>
        <mxCell id="cFL7iqV5pQ6nerM8wdcM-2" value="" style="rounded=0;whiteSpace=wrap;html=1;fillColor=#0050ef;strokeColor=#001DBC;fontColor=#ffffff;" parent="MwbJg4xykfJvcVXfdxU0-3" vertex="1">
          <mxGeometry width="417" height="190" as="geometry" />
        </mxCell>
        <mxCell id="MwbJg4xykfJvcVXfdxU0-1" value="Top模块" style="text;html=1;align=center;verticalAlign=middle;whiteSpace=wrap;rounded=0;fontColor=#FFFFFF;" parent="MwbJg4xykfJvcVXfdxU0-3" vertex="1">
          <mxGeometry x="171.7058823529412" y="80" width="73.58823529411765" height="30" as="geometry" />
        </mxCell>
        <mxCell id="MwbJg4xykfJvcVXfdxU0-15" style="edgeStyle=orthogonalEdgeStyle;rounded=0;orthogonalLoop=1;jettySize=auto;html=1;" parent="1" source="MwbJg4xykfJvcVXfdxU0-4" edge="1">
          <mxGeometry relative="1" as="geometry">
            <mxPoint x="418.4999999999998" y="619.9999999999998" as="targetPoint" />
          </mxGeometry>
        </mxCell>
        <mxCell id="MwbJg4xykfJvcVXfdxU0-16" value="开关信息" style="edgeLabel;html=1;align=center;verticalAlign=middle;resizable=0;points=[];" parent="MwbJg4xykfJvcVXfdxU0-15" vertex="1" connectable="0">
          <mxGeometry x="-0.2513" y="1" relative="1" as="geometry">
            <mxPoint as="offset" />
          </mxGeometry>
        </mxCell>
        <mxCell id="MwbJg4xykfJvcVXfdxU0-4" value="开关" style="rounded=0;whiteSpace=wrap;html=1;fillColor=#1ba1e2;fontColor=#ffffff;strokeColor=#006EAF;" parent="1" vertex="1">
          <mxGeometry x="380" y="510" width="77" height="60" as="geometry" />
        </mxCell>
        <mxCell id="MwbJg4xykfJvcVXfdxU0-5" value="BTN按钮" style="rounded=0;whiteSpace=wrap;html=1;fillColor=#1ba1e2;fontColor=#ffffff;strokeColor=#006EAF;" parent="1" vertex="1">
          <mxGeometry x="260" y="510" width="77" height="60" as="geometry" />
        </mxCell>
        <mxCell id="MwbJg4xykfJvcVXfdxU0-29" style="edgeStyle=orthogonalEdgeStyle;rounded=0;orthogonalLoop=1;jettySize=auto;html=1;entryX=0.5;entryY=1;entryDx=0;entryDy=0;" parent="1" source="MwbJg4xykfJvcVXfdxU0-6" target="MwbJg4xykfJvcVXfdxU0-7" edge="1">
          <mxGeometry relative="1" as="geometry" />
        </mxCell>
        <mxCell id="MwbJg4xykfJvcVXfdxU0-6" value="VGA信号" style="rounded=0;whiteSpace=wrap;html=1;fillColor=#1ba1e2;fontColor=#ffffff;strokeColor=#006EAF;" parent="1" vertex="1">
          <mxGeometry x="530" y="510" width="77" height="60" as="geometry" />
        </mxCell>
        <mxCell id="MwbJg4xykfJvcVXfdxU0-7" value="VGA屏幕" style="rounded=0;whiteSpace=wrap;html=1;fillColor=#1ba1e2;fontColor=#ffffff;strokeColor=#006EAF;" parent="1" vertex="1">
          <mxGeometry x="530" y="400" width="77" height="60" as="geometry" />
        </mxCell>
        <mxCell id="MwbJg4xykfJvcVXfdxU0-11" style="edgeStyle=orthogonalEdgeStyle;rounded=0;orthogonalLoop=1;jettySize=auto;html=1;entryX=0;entryY=0.5;entryDx=0;entryDy=0;" parent="1" source="MwbJg4xykfJvcVXfdxU0-8" target="cFL7iqV5pQ6nerM8wdcM-2" edge="1">
          <mxGeometry relative="1" as="geometry" />
        </mxCell>
        <mxCell id="MwbJg4xykfJvcVXfdxU0-12" value="时钟信号" style="edgeLabel;html=1;align=center;verticalAlign=middle;resizable=0;points=[];" parent="MwbJg4xykfJvcVXfdxU0-11" vertex="1" connectable="0">
          <mxGeometry x="-0.0366" y="-2" relative="1" as="geometry">
            <mxPoint as="offset" />
          </mxGeometry>
        </mxCell>
        <mxCell id="MwbJg4xykfJvcVXfdxU0-8" value="clkdiv" style="rounded=0;whiteSpace=wrap;html=1;fillColor=#1ba1e2;fontColor=#ffffff;strokeColor=#006EAF;" parent="1" vertex="1">
          <mxGeometry x="120" y="635" width="70" height="160" as="geometry" />
        </mxCell>
        <mxCell id="MwbJg4xykfJvcVXfdxU0-21" value="" style="edgeStyle=orthogonalEdgeStyle;rounded=0;orthogonalLoop=1;jettySize=auto;html=1;" parent="1" source="MwbJg4xykfJvcVXfdxU0-9" target="MwbJg4xykfJvcVXfdxU0-20" edge="1">
          <mxGeometry relative="1" as="geometry" />
        </mxCell>
        <mxCell id="MwbJg4xykfJvcVXfdxU0-22" value="数据传输" style="edgeLabel;html=1;align=center;verticalAlign=middle;resizable=0;points=[];" parent="MwbJg4xykfJvcVXfdxU0-21" vertex="1" connectable="0">
          <mxGeometry x="-0.3029" y="1" relative="1" as="geometry">
            <mxPoint as="offset" />
          </mxGeometry>
        </mxCell>
        <mxCell id="MwbJg4xykfJvcVXfdxU0-9" value="disp_num模块" style="rounded=0;whiteSpace=wrap;html=1;fillColor=#1ba1e2;fontColor=#ffffff;strokeColor=#006EAF;" parent="1" vertex="1">
          <mxGeometry x="740" y="635" width="90" height="160" as="geometry" />
        </mxCell>
        <mxCell id="MwbJg4xykfJvcVXfdxU0-26" value="数据传输" style="edgeStyle=orthogonalEdgeStyle;rounded=0;orthogonalLoop=1;jettySize=auto;html=1;" parent="1" source="MwbJg4xykfJvcVXfdxU0-10" target="MwbJg4xykfJvcVXfdxU0-25" edge="1">
          <mxGeometry relative="1" as="geometry" />
        </mxCell>
        <mxCell id="MwbJg4xykfJvcVXfdxU0-10" value="SSeg7_Dev模块" style="rounded=0;whiteSpace=wrap;html=1;fillColor=#1ba1e2;fontColor=#ffffff;strokeColor=#006EAF;" parent="1" vertex="1">
          <mxGeometry x="243" y="850" width="417" height="30" as="geometry" />
        </mxCell>
        <mxCell id="MwbJg4xykfJvcVXfdxU0-13" style="edgeStyle=orthogonalEdgeStyle;rounded=0;orthogonalLoop=1;jettySize=auto;html=1;entryX=0.133;entryY=0;entryDx=0;entryDy=0;entryPerimeter=0;" parent="1" source="MwbJg4xykfJvcVXfdxU0-5" target="cFL7iqV5pQ6nerM8wdcM-2" edge="1">
          <mxGeometry relative="1" as="geometry" />
        </mxCell>
        <mxCell id="MwbJg4xykfJvcVXfdxU0-14" value="按钮信号" style="edgeLabel;html=1;align=center;verticalAlign=middle;resizable=0;points=[];" parent="MwbJg4xykfJvcVXfdxU0-13" vertex="1" connectable="0">
          <mxGeometry x="-0.1953" y="1" relative="1" as="geometry">
            <mxPoint as="offset" />
          </mxGeometry>
        </mxCell>
        <mxCell id="MwbJg4xykfJvcVXfdxU0-18" style="edgeStyle=orthogonalEdgeStyle;rounded=0;orthogonalLoop=1;jettySize=auto;html=1;" parent="1" source="cFL7iqV5pQ6nerM8wdcM-2" target="MwbJg4xykfJvcVXfdxU0-9" edge="1">
          <mxGeometry relative="1" as="geometry" />
        </mxCell>
        <mxCell id="MwbJg4xykfJvcVXfdxU0-19" value="倒计时时间" style="edgeLabel;html=1;align=center;verticalAlign=middle;resizable=0;points=[];" parent="MwbJg4xykfJvcVXfdxU0-18" vertex="1" connectable="0">
          <mxGeometry x="-0.3318" relative="1" as="geometry">
            <mxPoint x="14" as="offset" />
          </mxGeometry>
        </mxCell>
        <mxCell id="MwbJg4xykfJvcVXfdxU0-20" value="4位4bit七段数码管" style="rounded=0;whiteSpace=wrap;html=1;fillColor=#1ba1e2;fontColor=#ffffff;strokeColor=#006EAF;" parent="1" vertex="1">
          <mxGeometry x="910" y="635" width="110" height="160" as="geometry" />
        </mxCell>
        <mxCell id="MwbJg4xykfJvcVXfdxU0-23" style="edgeStyle=orthogonalEdgeStyle;rounded=0;orthogonalLoop=1;jettySize=auto;html=1;entryX=0.5;entryY=0;entryDx=0;entryDy=0;" parent="1" source="cFL7iqV5pQ6nerM8wdcM-2" target="MwbJg4xykfJvcVXfdxU0-10" edge="1">
          <mxGeometry relative="1" as="geometry" />
        </mxCell>
        <mxCell id="MwbJg4xykfJvcVXfdxU0-24" value="当前难度等级/成功次数/失败次数/当前方向" style="edgeLabel;html=1;align=center;verticalAlign=middle;resizable=0;points=[];" parent="MwbJg4xykfJvcVXfdxU0-23" vertex="1" connectable="0">
          <mxGeometry x="0.1235" y="2" relative="1" as="geometry">
            <mxPoint as="offset" />
          </mxGeometry>
        </mxCell>
        <mxCell id="MwbJg4xykfJvcVXfdxU0-25" value="8位4bit七段数码管" style="rounded=0;whiteSpace=wrap;html=1;fillColor=#1ba1e2;fontColor=#ffffff;strokeColor=#006EAF;" parent="1" vertex="1">
          <mxGeometry x="243" y="920" width="417" height="30" as="geometry" />
        </mxCell>
        <mxCell id="MwbJg4xykfJvcVXfdxU0-27" value="" style="endArrow=classic;html=1;rounded=0;entryX=0.5;entryY=1;entryDx=0;entryDy=0;exitX=0.781;exitY=0.004;exitDx=0;exitDy=0;exitPerimeter=0;" parent="1" source="cFL7iqV5pQ6nerM8wdcM-2" target="MwbJg4xykfJvcVXfdxU0-6" edge="1">
          <mxGeometry width="50" height="50" relative="1" as="geometry">
            <mxPoint x="680" y="570" as="sourcePoint" />
            <mxPoint x="730" y="520" as="targetPoint" />
          </mxGeometry>
        </mxCell>
        <mxCell id="MwbJg4xykfJvcVXfdxU0-28" value="当前方向信息" style="edgeLabel;html=1;align=center;verticalAlign=middle;resizable=0;points=[];" parent="MwbJg4xykfJvcVXfdxU0-27" vertex="1" connectable="0">
          <mxGeometry x="0.0219" relative="1" as="geometry">
            <mxPoint as="offset" />
          </mxGeometry>
        </mxCell>
        <mxCell id="MwbJg4xykfJvcVXfdxU0-32" value="c" style="edgeStyle=orthogonalEdgeStyle;rounded=0;orthogonalLoop=1;jettySize=auto;html=1;" parent="1" source="MwbJg4xykfJvcVXfdxU0-30" target="MwbJg4xykfJvcVXfdxU0-31" edge="1">
          <mxGeometry relative="1" as="geometry" />
        </mxCell>
        <mxCell id="MwbJg4xykfJvcVXfdxU0-30" value="&lt;font color=&quot;#ff3333&quot;&gt;INIT状态&lt;/font&gt;&lt;br&gt;游戏开始，初始化倒计时，难度等信息" style="rounded=1;whiteSpace=wrap;html=1;fillColor=#60a917;fontColor=#ffffff;strokeColor=#2D7600;" parent="1" vertex="1">
          <mxGeometry x="50" y="1080" width="120" height="60" as="geometry" />
        </mxCell>
        <mxCell id="MwbJg4xykfJvcVXfdxU0-34" value="" style="edgeStyle=orthogonalEdgeStyle;rounded=0;orthogonalLoop=1;jettySize=auto;html=1;" parent="1" source="MwbJg4xykfJvcVXfdxU0-55" target="MwbJg4xykfJvcVXfdxU0-33" edge="1">
          <mxGeometry relative="1" as="geometry" />
        </mxCell>
        <mxCell id="MwbJg4xykfJvcVXfdxU0-57" value="否" style="edgeLabel;html=1;align=center;verticalAlign=middle;resizable=0;points=[];" parent="MwbJg4xykfJvcVXfdxU0-34" vertex="1" connectable="0">
          <mxGeometry x="-0.1161" relative="1" as="geometry">
            <mxPoint as="offset" />
          </mxGeometry>
        </mxCell>
        <mxCell id="MwbJg4xykfJvcVXfdxU0-31" value="&lt;font color=&quot;#ff3333&quot;&gt;WAIT状态&lt;/font&gt;&lt;br&gt;等待按钮输入&lt;br&gt;执行倒计时逻辑" style="whiteSpace=wrap;html=1;fillColor=#60a917;strokeColor=#2D7600;fontColor=#ffffff;rounded=1;" parent="1" vertex="1">
          <mxGeometry x="320" y="1080" width="120" height="60" as="geometry" />
        </mxCell>
        <mxCell id="MwbJg4xykfJvcVXfdxU0-36" value="" style="edgeStyle=orthogonalEdgeStyle;rounded=0;orthogonalLoop=1;jettySize=auto;html=1;" parent="1" source="MwbJg4xykfJvcVXfdxU0-33" target="MwbJg4xykfJvcVXfdxU0-35" edge="1">
          <mxGeometry relative="1" as="geometry" />
        </mxCell>
        <mxCell id="MwbJg4xykfJvcVXfdxU0-37" value="否" style="edgeLabel;html=1;align=center;verticalAlign=middle;resizable=0;points=[];" parent="MwbJg4xykfJvcVXfdxU0-36" vertex="1" connectable="0">
          <mxGeometry x="-0.2416" y="-2" relative="1" as="geometry">
            <mxPoint as="offset" />
          </mxGeometry>
        </mxCell>
        <mxCell id="MwbJg4xykfJvcVXfdxU0-40" value="" style="edgeStyle=orthogonalEdgeStyle;rounded=0;orthogonalLoop=1;jettySize=auto;html=1;" parent="1" source="MwbJg4xykfJvcVXfdxU0-33" target="MwbJg4xykfJvcVXfdxU0-39" edge="1">
          <mxGeometry relative="1" as="geometry" />
        </mxCell>
        <mxCell id="MwbJg4xykfJvcVXfdxU0-61" value="是" style="edgeLabel;html=1;align=center;verticalAlign=middle;resizable=0;points=[];" parent="MwbJg4xykfJvcVXfdxU0-40" vertex="1" connectable="0">
          <mxGeometry x="-0.2364" y="2" relative="1" as="geometry">
            <mxPoint as="offset" />
          </mxGeometry>
        </mxCell>
        <mxCell id="MwbJg4xykfJvcVXfdxU0-33" value="倒计时时间是否变为0？" style="rhombus;whiteSpace=wrap;html=1;fillColor=#e51400;strokeColor=#B20000;fontColor=#ffffff;rounded=1;" parent="1" vertex="1">
          <mxGeometry x="305" y="1340" width="250" height="85" as="geometry" />
        </mxCell>
        <mxCell id="MwbJg4xykfJvcVXfdxU0-66" style="edgeStyle=orthogonalEdgeStyle;rounded=0;orthogonalLoop=1;jettySize=auto;html=1;entryX=0;entryY=0.5;entryDx=0;entryDy=0;" parent="1" source="MwbJg4xykfJvcVXfdxU0-35" target="MwbJg4xykfJvcVXfdxU0-31" edge="1">
          <mxGeometry relative="1" as="geometry">
            <Array as="points">
              <mxPoint x="210" y="1110" />
            </Array>
          </mxGeometry>
        </mxCell>
        <mxCell id="MwbJg4xykfJvcVXfdxU0-35" value="倒计时时间减一" style="whiteSpace=wrap;html=1;rounded=1;fillColor=#60a917;fontColor=#ffffff;strokeColor=#2D7600;" parent="1" vertex="1">
          <mxGeometry x="132.5" y="1352.5" width="120" height="60" as="geometry" />
        </mxCell>
        <mxCell id="MwbJg4xykfJvcVXfdxU0-42" value="" style="edgeStyle=orthogonalEdgeStyle;rounded=0;orthogonalLoop=1;jettySize=auto;html=1;entryX=0.5;entryY=0;entryDx=0;entryDy=0;" parent="1" source="MwbJg4xykfJvcVXfdxU0-39" target="MwbJg4xykfJvcVXfdxU0-43" edge="1">
          <mxGeometry relative="1" as="geometry">
            <mxPoint x="377.5" y="1595" as="targetPoint" />
          </mxGeometry>
        </mxCell>
        <mxCell id="MwbJg4xykfJvcVXfdxU0-39" value="&lt;font color=&quot;#ff3333&quot;&gt;FAIL状态&lt;/font&gt;&lt;br&gt;" style="whiteSpace=wrap;html=1;fillColor=#60a917;strokeColor=#2D7600;fontColor=#ffffff;rounded=1;" parent="1" vertex="1">
          <mxGeometry x="317.5" y="1480" width="120" height="50" as="geometry" />
        </mxCell>
        <mxCell id="MwbJg4xykfJvcVXfdxU0-46" value="" style="edgeStyle=orthogonalEdgeStyle;rounded=0;orthogonalLoop=1;jettySize=auto;html=1;" parent="1" source="MwbJg4xykfJvcVXfdxU0-43" target="MwbJg4xykfJvcVXfdxU0-45" edge="1">
          <mxGeometry relative="1" as="geometry" />
        </mxCell>
        <mxCell id="MwbJg4xykfJvcVXfdxU0-47" value="是" style="edgeLabel;html=1;align=center;verticalAlign=middle;resizable=0;points=[];" parent="MwbJg4xykfJvcVXfdxU0-46" vertex="1" connectable="0">
          <mxGeometry x="-0.0853" y="5" relative="1" as="geometry">
            <mxPoint x="1" y="-5" as="offset" />
          </mxGeometry>
        </mxCell>
        <mxCell id="MwbJg4xykfJvcVXfdxU0-50" value="" style="edgeStyle=orthogonalEdgeStyle;rounded=0;orthogonalLoop=1;jettySize=auto;html=1;" parent="1" source="MwbJg4xykfJvcVXfdxU0-43" target="MwbJg4xykfJvcVXfdxU0-49" edge="1">
          <mxGeometry relative="1" as="geometry" />
        </mxCell>
        <mxCell id="MwbJg4xykfJvcVXfdxU0-51" value="否" style="edgeLabel;html=1;align=center;verticalAlign=middle;resizable=0;points=[];" parent="MwbJg4xykfJvcVXfdxU0-50" vertex="1" connectable="0">
          <mxGeometry x="-0.3038" y="-2" relative="1" as="geometry">
            <mxPoint as="offset" />
          </mxGeometry>
        </mxCell>
        <mxCell id="MwbJg4xykfJvcVXfdxU0-43" value="当前失败次数是否大于等于3？" style="rhombus;whiteSpace=wrap;html=1;fillColor=#e51400;strokeColor=#B20000;fontColor=#ffffff;rounded=1;" parent="1" vertex="1">
          <mxGeometry x="252.5" y="1560" width="250" height="85" as="geometry" />
        </mxCell>
        <mxCell id="MwbJg4xykfJvcVXfdxU0-48" style="edgeStyle=orthogonalEdgeStyle;rounded=0;orthogonalLoop=1;jettySize=auto;html=1;entryX=0.5;entryY=1;entryDx=0;entryDy=0;" parent="1" source="MwbJg4xykfJvcVXfdxU0-45" target="MwbJg4xykfJvcVXfdxU0-30" edge="1">
          <mxGeometry relative="1" as="geometry" />
        </mxCell>
        <mxCell id="MwbJg4xykfJvcVXfdxU0-45" value="重置游戏" style="whiteSpace=wrap;html=1;fillColor=#60a917;strokeColor=#2D7600;fontColor=#ffffff;rounded=1;" parent="1" vertex="1">
          <mxGeometry x="50" y="1572.5" width="120" height="60" as="geometry" />
        </mxCell>
        <mxCell id="MwbJg4xykfJvcVXfdxU0-53" value="" style="edgeStyle=orthogonalEdgeStyle;rounded=0;orthogonalLoop=1;jettySize=auto;html=1;" parent="1" source="MwbJg4xykfJvcVXfdxU0-49" target="MwbJg4xykfJvcVXfdxU0-52" edge="1">
          <mxGeometry relative="1" as="geometry" />
        </mxCell>
        <mxCell id="MwbJg4xykfJvcVXfdxU0-49" value="失败次数加一" style="whiteSpace=wrap;html=1;fillColor=#60a917;strokeColor=#2D7600;fontColor=#ffffff;rounded=1;" parent="1" vertex="1">
          <mxGeometry x="317.5" y="1680" width="120" height="60" as="geometry" />
        </mxCell>
        <mxCell id="MwbJg4xykfJvcVXfdxU0-54" style="edgeStyle=orthogonalEdgeStyle;rounded=0;orthogonalLoop=1;jettySize=auto;html=1;entryX=0.5;entryY=0;entryDx=0;entryDy=0;" parent="1" source="MwbJg4xykfJvcVXfdxU0-52" target="MwbJg4xykfJvcVXfdxU0-31" edge="1">
          <mxGeometry relative="1" as="geometry">
            <mxPoint x="40" y="1010" as="targetPoint" />
            <Array as="points">
              <mxPoint x="30" y="1810" />
              <mxPoint x="30" y="1040" />
              <mxPoint x="380" y="1040" />
            </Array>
          </mxGeometry>
        </mxCell>
        <mxCell id="MwbJg4xykfJvcVXfdxU0-52" value="&lt;font color=&quot;#ff3333&quot;&gt;UPDATEDIRECTION状态&lt;/font&gt;&lt;br&gt;更新下一个方向，重置倒计时" style="whiteSpace=wrap;html=1;fillColor=#60a917;strokeColor=#2D7600;fontColor=#ffffff;rounded=1;" parent="1" vertex="1">
          <mxGeometry x="292.5" y="1780" width="170" height="60" as="geometry" />
        </mxCell>
        <mxCell id="MwbJg4xykfJvcVXfdxU0-56" value="" style="edgeStyle=orthogonalEdgeStyle;rounded=0;orthogonalLoop=1;jettySize=auto;html=1;" parent="1" source="MwbJg4xykfJvcVXfdxU0-31" target="MwbJg4xykfJvcVXfdxU0-55" edge="1">
          <mxGeometry relative="1" as="geometry">
            <mxPoint x="380" y="1140" as="sourcePoint" />
            <mxPoint x="378" y="1340" as="targetPoint" />
          </mxGeometry>
        </mxCell>
        <mxCell id="MwbJg4xykfJvcVXfdxU0-63" value="" style="edgeStyle=orthogonalEdgeStyle;rounded=0;orthogonalLoop=1;jettySize=auto;html=1;" parent="1" source="MwbJg4xykfJvcVXfdxU0-55" target="MwbJg4xykfJvcVXfdxU0-62" edge="1">
          <mxGeometry relative="1" as="geometry" />
        </mxCell>
        <mxCell id="MwbJg4xykfJvcVXfdxU0-64" value="是" style="edgeLabel;html=1;align=center;verticalAlign=middle;resizable=0;points=[];" parent="MwbJg4xykfJvcVXfdxU0-63" vertex="1" connectable="0">
          <mxGeometry x="0.5585" y="4" relative="1" as="geometry">
            <mxPoint as="offset" />
          </mxGeometry>
        </mxCell>
        <mxCell id="MwbJg4xykfJvcVXfdxU0-55" value="是否有按键输入？" style="rhombus;whiteSpace=wrap;html=1;fillColor=#e51400;strokeColor=#B20000;fontColor=#ffffff;rounded=1;" parent="1" vertex="1">
          <mxGeometry x="255" y="1190" width="250" height="85" as="geometry" />
        </mxCell>
        <mxCell id="MwbJg4xykfJvcVXfdxU0-65" style="edgeStyle=orthogonalEdgeStyle;rounded=0;orthogonalLoop=1;jettySize=auto;html=1;entryX=1;entryY=0.5;entryDx=0;entryDy=0;" parent="1" target="MwbJg4xykfJvcVXfdxU0-39" edge="1">
          <mxGeometry relative="1" as="geometry">
            <mxPoint x="725" y="1256.4199999999996" as="sourcePoint" />
            <mxPoint x="502.5" y="1508.52" as="targetPoint" />
            <Array as="points">
              <mxPoint x="725" y="1508" />
              <mxPoint x="438" y="1508" />
            </Array>
          </mxGeometry>
        </mxCell>
        <mxCell id="MwbJg4xykfJvcVXfdxU0-67" value="否，按错" style="edgeLabel;html=1;align=center;verticalAlign=middle;resizable=0;points=[];" parent="MwbJg4xykfJvcVXfdxU0-65" vertex="1" connectable="0">
          <mxGeometry x="-0.8561" y="-1" relative="1" as="geometry">
            <mxPoint as="offset" />
          </mxGeometry>
        </mxCell>
        <mxCell id="MwbJg4xykfJvcVXfdxU0-71" value="" style="edgeStyle=orthogonalEdgeStyle;rounded=0;orthogonalLoop=1;jettySize=auto;html=1;" parent="1" source="MwbJg4xykfJvcVXfdxU0-62" target="MwbJg4xykfJvcVXfdxU0-70" edge="1">
          <mxGeometry relative="1" as="geometry" />
        </mxCell>
        <mxCell id="MwbJg4xykfJvcVXfdxU0-62" value="是否按对？" style="rhombus;whiteSpace=wrap;html=1;fillColor=#e51400;strokeColor=#B20000;fontColor=#ffffff;rounded=1;" parent="1" vertex="1">
          <mxGeometry x="600" y="1190" width="250" height="85" as="geometry" />
        </mxCell>
        <mxCell id="MwbJg4xykfJvcVXfdxU0-73" value="" style="edgeStyle=orthogonalEdgeStyle;rounded=0;orthogonalLoop=1;jettySize=auto;html=1;" parent="1" source="MwbJg4xykfJvcVXfdxU0-70" target="MwbJg4xykfJvcVXfdxU0-72" edge="1">
          <mxGeometry relative="1" as="geometry" />
        </mxCell>
        <mxCell id="MwbJg4xykfJvcVXfdxU0-74" value="否" style="edgeLabel;html=1;align=center;verticalAlign=middle;resizable=0;points=[];" parent="MwbJg4xykfJvcVXfdxU0-73" vertex="1" connectable="0">
          <mxGeometry x="-0.2613" y="3" relative="1" as="geometry">
            <mxPoint y="1" as="offset" />
          </mxGeometry>
        </mxCell>
        <mxCell id="MwbJg4xykfJvcVXfdxU0-78" value="" style="edgeStyle=orthogonalEdgeStyle;rounded=0;orthogonalLoop=1;jettySize=auto;html=1;" parent="1" source="MwbJg4xykfJvcVXfdxU0-70" target="MwbJg4xykfJvcVXfdxU0-77" edge="1">
          <mxGeometry relative="1" as="geometry" />
        </mxCell>
        <mxCell id="MwbJg4xykfJvcVXfdxU0-79" value="是" style="edgeLabel;html=1;align=center;verticalAlign=middle;resizable=0;points=[];" parent="MwbJg4xykfJvcVXfdxU0-78" vertex="1" connectable="0">
          <mxGeometry x="0.0231" y="3" relative="1" as="geometry">
            <mxPoint as="offset" />
          </mxGeometry>
        </mxCell>
        <mxCell id="MwbJg4xykfJvcVXfdxU0-70" value="当前成功次数是否到达10？" style="rhombus;whiteSpace=wrap;html=1;fillColor=#e51400;strokeColor=#B20000;fontColor=#ffffff;rounded=1;" parent="1" vertex="1">
          <mxGeometry x="890" y="1190" width="250" height="85" as="geometry" />
        </mxCell>
        <mxCell id="MwbJg4xykfJvcVXfdxU0-76" style="edgeStyle=orthogonalEdgeStyle;rounded=0;orthogonalLoop=1;jettySize=auto;html=1;entryX=1;entryY=0.5;entryDx=0;entryDy=0;" parent="1" source="MwbJg4xykfJvcVXfdxU0-72" target="MwbJg4xykfJvcVXfdxU0-52" edge="1">
          <mxGeometry relative="1" as="geometry">
            <Array as="points">
              <mxPoint x="1015" y="1810" />
            </Array>
          </mxGeometry>
        </mxCell>
        <mxCell id="MwbJg4xykfJvcVXfdxU0-72" value="记录成功次数增加一" style="whiteSpace=wrap;html=1;fillColor=#60a917;strokeColor=#2D7600;fontColor=#ffffff;rounded=1;" parent="1" vertex="1">
          <mxGeometry x="955" y="1367.5" width="120" height="60" as="geometry" />
        </mxCell>
        <mxCell id="MwbJg4xykfJvcVXfdxU0-80" style="edgeStyle=orthogonalEdgeStyle;rounded=0;orthogonalLoop=1;jettySize=auto;html=1;entryX=0.5;entryY=1;entryDx=0;entryDy=0;" parent="1" source="MwbJg4xykfJvcVXfdxU0-77" target="MwbJg4xykfJvcVXfdxU0-52" edge="1">
          <mxGeometry relative="1" as="geometry">
            <Array as="points">
              <mxPoint x="1290" y="1860" />
              <mxPoint x="378" y="1860" />
            </Array>
          </mxGeometry>
        </mxCell>
        <mxCell id="MwbJg4xykfJvcVXfdxU0-77" value="&lt;font color=&quot;#ff3333&quot;&gt;PROMOTE状态&lt;/font&gt;&lt;br&gt;难度等级提升，成功/失败次数清零" style="whiteSpace=wrap;html=1;fillColor=#60a917;strokeColor=#2D7600;fontColor=#ffffff;rounded=1;" parent="1" vertex="1">
          <mxGeometry x="1241" y="1202.5" width="120" height="60" as="geometry" />
        </mxCell>
      </root>
    </mxGraphModel>
  </diagram>
  <diagram id="pdCF1ad3-q7KOrroEkM7" name="第 2 页">
    <mxGraphModel dx="2837" dy="2194" grid="1" gridSize="10" guides="1" tooltips="1" connect="1" arrows="1" fold="1" page="1" pageScale="1" pageWidth="827" pageHeight="1169" math="0" shadow="0">
      <root>
        <mxCell id="0" />
        <mxCell id="1" parent="0" />
        <mxCell id="amHx6SAmP-XiGZ-ax4XM-1" value="" style="edgeStyle=orthogonalEdgeStyle;rounded=0;orthogonalLoop=1;jettySize=auto;html=1;" edge="1" parent="1" source="amHx6SAmP-XiGZ-ax4XM-2" target="amHx6SAmP-XiGZ-ax4XM-5">
          <mxGeometry relative="1" as="geometry" />
        </mxCell>
        <mxCell id="amHx6SAmP-XiGZ-ax4XM-2" value="&lt;font color=&quot;#ff3333&quot;&gt;INIT状态&lt;/font&gt;&lt;br&gt;游戏开始，初始化倒计时，难度等信息" style="rounded=1;whiteSpace=wrap;html=1;fillColor=#60a917;fontColor=#ffffff;strokeColor=#2D7600;" vertex="1" parent="1">
          <mxGeometry x="139.86" y="159.86" width="120" height="60" as="geometry" />
        </mxCell>
        <mxCell id="amHx6SAmP-XiGZ-ax4XM-3" value="" style="edgeStyle=orthogonalEdgeStyle;rounded=0;orthogonalLoop=1;jettySize=auto;html=1;" edge="1" parent="1" source="amHx6SAmP-XiGZ-ax4XM-29" target="amHx6SAmP-XiGZ-ax4XM-10">
          <mxGeometry relative="1" as="geometry" />
        </mxCell>
        <mxCell id="amHx6SAmP-XiGZ-ax4XM-4" value="否" style="edgeLabel;html=1;align=center;verticalAlign=middle;resizable=0;points=[];" vertex="1" connectable="0" parent="amHx6SAmP-XiGZ-ax4XM-3">
          <mxGeometry x="-0.1161" relative="1" as="geometry">
            <mxPoint as="offset" />
          </mxGeometry>
        </mxCell>
        <mxCell id="amHx6SAmP-XiGZ-ax4XM-5" value="&lt;font color=&quot;#ff3333&quot;&gt;WAIT状态&lt;/font&gt;&lt;br&gt;等待按钮输入&lt;br&gt;执行倒计时逻辑" style="whiteSpace=wrap;html=1;fillColor=#60a917;strokeColor=#2D7600;fontColor=#ffffff;rounded=1;" vertex="1" parent="1">
          <mxGeometry x="409.86" y="159.86" width="120" height="60" as="geometry" />
        </mxCell>
        <mxCell id="amHx6SAmP-XiGZ-ax4XM-6" value="" style="edgeStyle=orthogonalEdgeStyle;rounded=0;orthogonalLoop=1;jettySize=auto;html=1;" edge="1" parent="1" source="amHx6SAmP-XiGZ-ax4XM-10" target="amHx6SAmP-XiGZ-ax4XM-12">
          <mxGeometry relative="1" as="geometry" />
        </mxCell>
        <mxCell id="amHx6SAmP-XiGZ-ax4XM-7" value="否" style="edgeLabel;html=1;align=center;verticalAlign=middle;resizable=0;points=[];" vertex="1" connectable="0" parent="amHx6SAmP-XiGZ-ax4XM-6">
          <mxGeometry x="-0.2416" y="-2" relative="1" as="geometry">
            <mxPoint as="offset" />
          </mxGeometry>
        </mxCell>
        <mxCell id="amHx6SAmP-XiGZ-ax4XM-8" value="" style="edgeStyle=orthogonalEdgeStyle;rounded=0;orthogonalLoop=1;jettySize=auto;html=1;" edge="1" parent="1" source="amHx6SAmP-XiGZ-ax4XM-10" target="amHx6SAmP-XiGZ-ax4XM-14">
          <mxGeometry relative="1" as="geometry" />
        </mxCell>
        <mxCell id="amHx6SAmP-XiGZ-ax4XM-9" value="是" style="edgeLabel;html=1;align=center;verticalAlign=middle;resizable=0;points=[];" vertex="1" connectable="0" parent="amHx6SAmP-XiGZ-ax4XM-8">
          <mxGeometry x="-0.2364" y="2" relative="1" as="geometry">
            <mxPoint as="offset" />
          </mxGeometry>
        </mxCell>
        <mxCell id="amHx6SAmP-XiGZ-ax4XM-10" value="倒计时时间是否变为0？" style="rhombus;whiteSpace=wrap;html=1;fillColor=#e51400;strokeColor=#B20000;fontColor=#ffffff;rounded=1;" vertex="1" parent="1">
          <mxGeometry x="394.86" y="419.86" width="250" height="85" as="geometry" />
        </mxCell>
        <mxCell id="amHx6SAmP-XiGZ-ax4XM-11" style="edgeStyle=orthogonalEdgeStyle;rounded=0;orthogonalLoop=1;jettySize=auto;html=1;entryX=0;entryY=0.5;entryDx=0;entryDy=0;" edge="1" parent="1" source="amHx6SAmP-XiGZ-ax4XM-12" target="amHx6SAmP-XiGZ-ax4XM-5">
          <mxGeometry relative="1" as="geometry">
            <Array as="points">
              <mxPoint x="299.86" y="189.86" />
            </Array>
          </mxGeometry>
        </mxCell>
        <mxCell id="amHx6SAmP-XiGZ-ax4XM-12" value="倒计时时间减一" style="whiteSpace=wrap;html=1;rounded=1;fillColor=#60a917;fontColor=#ffffff;strokeColor=#2D7600;" vertex="1" parent="1">
          <mxGeometry x="222.36" y="432.36" width="120" height="60" as="geometry" />
        </mxCell>
        <mxCell id="amHx6SAmP-XiGZ-ax4XM-13" value="" style="edgeStyle=orthogonalEdgeStyle;rounded=0;orthogonalLoop=1;jettySize=auto;html=1;entryX=0.5;entryY=0;entryDx=0;entryDy=0;" edge="1" parent="1" source="amHx6SAmP-XiGZ-ax4XM-14" target="amHx6SAmP-XiGZ-ax4XM-19">
          <mxGeometry relative="1" as="geometry">
            <mxPoint x="467.36" y="674.86" as="targetPoint" />
          </mxGeometry>
        </mxCell>
        <mxCell id="amHx6SAmP-XiGZ-ax4XM-14" value="&lt;font color=&quot;#ff3333&quot;&gt;FAIL状态&lt;/font&gt;&lt;br&gt;" style="whiteSpace=wrap;html=1;fillColor=#60a917;strokeColor=#2D7600;fontColor=#ffffff;rounded=1;" vertex="1" parent="1">
          <mxGeometry x="407.36" y="559.86" width="120" height="50" as="geometry" />
        </mxCell>
        <mxCell id="amHx6SAmP-XiGZ-ax4XM-15" value="" style="edgeStyle=orthogonalEdgeStyle;rounded=0;orthogonalLoop=1;jettySize=auto;html=1;" edge="1" parent="1" source="amHx6SAmP-XiGZ-ax4XM-19" target="amHx6SAmP-XiGZ-ax4XM-21">
          <mxGeometry relative="1" as="geometry" />
        </mxCell>
        <mxCell id="amHx6SAmP-XiGZ-ax4XM-16" value="是" style="edgeLabel;html=1;align=center;verticalAlign=middle;resizable=0;points=[];" vertex="1" connectable="0" parent="amHx6SAmP-XiGZ-ax4XM-15">
          <mxGeometry x="-0.0853" y="5" relative="1" as="geometry">
            <mxPoint x="1" y="-5" as="offset" />
          </mxGeometry>
        </mxCell>
        <mxCell id="amHx6SAmP-XiGZ-ax4XM-17" value="" style="edgeStyle=orthogonalEdgeStyle;rounded=0;orthogonalLoop=1;jettySize=auto;html=1;" edge="1" parent="1" source="amHx6SAmP-XiGZ-ax4XM-19" target="amHx6SAmP-XiGZ-ax4XM-23">
          <mxGeometry relative="1" as="geometry" />
        </mxCell>
        <mxCell id="amHx6SAmP-XiGZ-ax4XM-18" value="否" style="edgeLabel;html=1;align=center;verticalAlign=middle;resizable=0;points=[];" vertex="1" connectable="0" parent="amHx6SAmP-XiGZ-ax4XM-17">
          <mxGeometry x="-0.3038" y="-2" relative="1" as="geometry">
            <mxPoint as="offset" />
          </mxGeometry>
        </mxCell>
        <mxCell id="amHx6SAmP-XiGZ-ax4XM-19" value="当前失败次数是否大于等于3？" style="rhombus;whiteSpace=wrap;html=1;fillColor=#e51400;strokeColor=#B20000;fontColor=#ffffff;rounded=1;" vertex="1" parent="1">
          <mxGeometry x="342.36" y="639.86" width="250" height="85" as="geometry" />
        </mxCell>
        <mxCell id="amHx6SAmP-XiGZ-ax4XM-20" style="edgeStyle=orthogonalEdgeStyle;rounded=0;orthogonalLoop=1;jettySize=auto;html=1;entryX=0.5;entryY=1;entryDx=0;entryDy=0;" edge="1" parent="1" source="amHx6SAmP-XiGZ-ax4XM-21" target="amHx6SAmP-XiGZ-ax4XM-2">
          <mxGeometry relative="1" as="geometry" />
        </mxCell>
        <mxCell id="amHx6SAmP-XiGZ-ax4XM-21" value="重置游戏" style="whiteSpace=wrap;html=1;fillColor=#60a917;strokeColor=#2D7600;fontColor=#ffffff;rounded=1;" vertex="1" parent="1">
          <mxGeometry x="139.86" y="652.36" width="120" height="60" as="geometry" />
        </mxCell>
        <mxCell id="amHx6SAmP-XiGZ-ax4XM-22" value="" style="edgeStyle=orthogonalEdgeStyle;rounded=0;orthogonalLoop=1;jettySize=auto;html=1;" edge="1" parent="1" source="amHx6SAmP-XiGZ-ax4XM-23" target="amHx6SAmP-XiGZ-ax4XM-25">
          <mxGeometry relative="1" as="geometry" />
        </mxCell>
        <mxCell id="amHx6SAmP-XiGZ-ax4XM-23" value="失败次数加一" style="whiteSpace=wrap;html=1;fillColor=#60a917;strokeColor=#2D7600;fontColor=#ffffff;rounded=1;" vertex="1" parent="1">
          <mxGeometry x="407.36" y="759.86" width="120" height="60" as="geometry" />
        </mxCell>
        <mxCell id="amHx6SAmP-XiGZ-ax4XM-24" style="edgeStyle=orthogonalEdgeStyle;rounded=0;orthogonalLoop=1;jettySize=auto;html=1;entryX=0.5;entryY=0;entryDx=0;entryDy=0;" edge="1" parent="1" source="amHx6SAmP-XiGZ-ax4XM-25" target="amHx6SAmP-XiGZ-ax4XM-5">
          <mxGeometry relative="1" as="geometry">
            <mxPoint x="129.86" y="89.86000000000001" as="targetPoint" />
            <Array as="points">
              <mxPoint x="119.86" y="889.86" />
              <mxPoint x="119.86" y="119.86000000000001" />
              <mxPoint x="469.86" y="119.86000000000001" />
            </Array>
          </mxGeometry>
        </mxCell>
        <mxCell id="amHx6SAmP-XiGZ-ax4XM-25" value="&lt;font color=&quot;#ff3333&quot;&gt;UPDATEDIRECTION状态&lt;/font&gt;&lt;br&gt;更新下一个方向，重置倒计时" style="whiteSpace=wrap;html=1;fillColor=#60a917;strokeColor=#2D7600;fontColor=#ffffff;rounded=1;" vertex="1" parent="1">
          <mxGeometry x="382.36" y="859.86" width="170" height="60" as="geometry" />
        </mxCell>
        <mxCell id="amHx6SAmP-XiGZ-ax4XM-26" value="" style="edgeStyle=orthogonalEdgeStyle;rounded=0;orthogonalLoop=1;jettySize=auto;html=1;" edge="1" parent="1" source="amHx6SAmP-XiGZ-ax4XM-5" target="amHx6SAmP-XiGZ-ax4XM-29">
          <mxGeometry relative="1" as="geometry">
            <mxPoint x="469.86" y="219.86" as="sourcePoint" />
            <mxPoint x="467.86" y="419.86" as="targetPoint" />
          </mxGeometry>
        </mxCell>
        <mxCell id="amHx6SAmP-XiGZ-ax4XM-27" value="" style="edgeStyle=orthogonalEdgeStyle;rounded=0;orthogonalLoop=1;jettySize=auto;html=1;" edge="1" parent="1" source="amHx6SAmP-XiGZ-ax4XM-29" target="amHx6SAmP-XiGZ-ax4XM-33">
          <mxGeometry relative="1" as="geometry" />
        </mxCell>
        <mxCell id="amHx6SAmP-XiGZ-ax4XM-28" value="是" style="edgeLabel;html=1;align=center;verticalAlign=middle;resizable=0;points=[];" vertex="1" connectable="0" parent="amHx6SAmP-XiGZ-ax4XM-27">
          <mxGeometry x="0.5585" y="4" relative="1" as="geometry">
            <mxPoint as="offset" />
          </mxGeometry>
        </mxCell>
        <mxCell id="amHx6SAmP-XiGZ-ax4XM-29" value="是否有按键输入？" style="rhombus;whiteSpace=wrap;html=1;fillColor=#e51400;strokeColor=#B20000;fontColor=#ffffff;rounded=1;" vertex="1" parent="1">
          <mxGeometry x="344.86" y="269.86" width="250" height="85" as="geometry" />
        </mxCell>
        <mxCell id="amHx6SAmP-XiGZ-ax4XM-30" style="edgeStyle=orthogonalEdgeStyle;rounded=0;orthogonalLoop=1;jettySize=auto;html=1;entryX=1;entryY=0.5;entryDx=0;entryDy=0;" edge="1" parent="1" target="amHx6SAmP-XiGZ-ax4XM-14">
          <mxGeometry relative="1" as="geometry">
            <mxPoint x="814.86" y="336.27999999999963" as="sourcePoint" />
            <mxPoint x="592.36" y="588.38" as="targetPoint" />
            <Array as="points">
              <mxPoint x="814.86" y="587.86" />
              <mxPoint x="527.86" y="587.86" />
            </Array>
          </mxGeometry>
        </mxCell>
        <mxCell id="amHx6SAmP-XiGZ-ax4XM-31" value="否，按错" style="edgeLabel;html=1;align=center;verticalAlign=middle;resizable=0;points=[];" vertex="1" connectable="0" parent="amHx6SAmP-XiGZ-ax4XM-30">
          <mxGeometry x="-0.8561" y="-1" relative="1" as="geometry">
            <mxPoint as="offset" />
          </mxGeometry>
        </mxCell>
        <mxCell id="amHx6SAmP-XiGZ-ax4XM-32" value="" style="edgeStyle=orthogonalEdgeStyle;rounded=0;orthogonalLoop=1;jettySize=auto;html=1;" edge="1" parent="1" source="amHx6SAmP-XiGZ-ax4XM-33" target="amHx6SAmP-XiGZ-ax4XM-38">
          <mxGeometry relative="1" as="geometry" />
        </mxCell>
        <mxCell id="amHx6SAmP-XiGZ-ax4XM-33" value="是否按对？" style="rhombus;whiteSpace=wrap;html=1;fillColor=#e51400;strokeColor=#B20000;fontColor=#ffffff;rounded=1;" vertex="1" parent="1">
          <mxGeometry x="689.86" y="269.86" width="250" height="85" as="geometry" />
        </mxCell>
        <mxCell id="amHx6SAmP-XiGZ-ax4XM-34" value="" style="edgeStyle=orthogonalEdgeStyle;rounded=0;orthogonalLoop=1;jettySize=auto;html=1;" edge="1" parent="1" source="amHx6SAmP-XiGZ-ax4XM-38" target="amHx6SAmP-XiGZ-ax4XM-40">
          <mxGeometry relative="1" as="geometry" />
        </mxCell>
        <mxCell id="amHx6SAmP-XiGZ-ax4XM-35" value="否" style="edgeLabel;html=1;align=center;verticalAlign=middle;resizable=0;points=[];" vertex="1" connectable="0" parent="amHx6SAmP-XiGZ-ax4XM-34">
          <mxGeometry x="-0.2613" y="3" relative="1" as="geometry">
            <mxPoint y="1" as="offset" />
          </mxGeometry>
        </mxCell>
        <mxCell id="amHx6SAmP-XiGZ-ax4XM-36" value="" style="edgeStyle=orthogonalEdgeStyle;rounded=0;orthogonalLoop=1;jettySize=auto;html=1;" edge="1" parent="1" source="amHx6SAmP-XiGZ-ax4XM-38" target="amHx6SAmP-XiGZ-ax4XM-42">
          <mxGeometry relative="1" as="geometry" />
        </mxCell>
        <mxCell id="amHx6SAmP-XiGZ-ax4XM-37" value="是" style="edgeLabel;html=1;align=center;verticalAlign=middle;resizable=0;points=[];" vertex="1" connectable="0" parent="amHx6SAmP-XiGZ-ax4XM-36">
          <mxGeometry x="0.0231" y="3" relative="1" as="geometry">
            <mxPoint as="offset" />
          </mxGeometry>
        </mxCell>
        <mxCell id="amHx6SAmP-XiGZ-ax4XM-38" value="当前成功次数是否到达10？" style="rhombus;whiteSpace=wrap;html=1;fillColor=#e51400;strokeColor=#B20000;fontColor=#ffffff;rounded=1;" vertex="1" parent="1">
          <mxGeometry x="979.86" y="269.86" width="250" height="85" as="geometry" />
        </mxCell>
        <mxCell id="amHx6SAmP-XiGZ-ax4XM-39" style="edgeStyle=orthogonalEdgeStyle;rounded=0;orthogonalLoop=1;jettySize=auto;html=1;entryX=1;entryY=0.5;entryDx=0;entryDy=0;" edge="1" parent="1" source="amHx6SAmP-XiGZ-ax4XM-40" target="amHx6SAmP-XiGZ-ax4XM-25">
          <mxGeometry relative="1" as="geometry">
            <Array as="points">
              <mxPoint x="1104.86" y="889.86" />
            </Array>
          </mxGeometry>
        </mxCell>
        <mxCell id="amHx6SAmP-XiGZ-ax4XM-40" value="记录成功次数增加一" style="whiteSpace=wrap;html=1;fillColor=#60a917;strokeColor=#2D7600;fontColor=#ffffff;rounded=1;" vertex="1" parent="1">
          <mxGeometry x="1044.86" y="447.36" width="120" height="60" as="geometry" />
        </mxCell>
        <mxCell id="amHx6SAmP-XiGZ-ax4XM-41" style="edgeStyle=orthogonalEdgeStyle;rounded=0;orthogonalLoop=1;jettySize=auto;html=1;entryX=0.5;entryY=1;entryDx=0;entryDy=0;" edge="1" parent="1" source="amHx6SAmP-XiGZ-ax4XM-42" target="amHx6SAmP-XiGZ-ax4XM-25">
          <mxGeometry relative="1" as="geometry">
            <Array as="points">
              <mxPoint x="1379.86" y="939.86" />
              <mxPoint x="467.86" y="939.86" />
            </Array>
          </mxGeometry>
        </mxCell>
        <mxCell id="amHx6SAmP-XiGZ-ax4XM-42" value="&lt;font color=&quot;#ff3333&quot;&gt;PROMOTE状态&lt;/font&gt;&lt;br&gt;难度等级提升，成功/失败次数清零" style="whiteSpace=wrap;html=1;fillColor=#60a917;strokeColor=#2D7600;fontColor=#ffffff;rounded=1;" vertex="1" parent="1">
          <mxGeometry x="1330.86" y="282.36" width="120" height="60" as="geometry" />
        </mxCell>
      </root>
    </mxGraphModel>
  </diagram>
</mxfile>
